<svg width="18" height="18" viewBox="0 0 18 18" fill="none" xmlns="http://www.w3.org/2000/svg">
<path d="M5.70225 6.91675L12.6467 8.84572L10.0186 13.2263C10.0186 13.2263 10.0186 13.2263 10.0186 13.2263C9.96552 13.3147 9.9375 13.4158 9.9375 13.5189C9.9375 15.4936 11.5439 17.1 13.5187 17.1C15.4934 17.1 17.0998 15.4936 17.0998 13.5189C17.0998 13.4158 17.0718 13.3146 17.0188 13.2263L16.933 13.2777L17.0188 13.2263L14.7395 9.42704L16.3789 9.88242C16.4297 9.89653 16.4809 9.90329 16.5314 9.90329C16.7805 9.90329 17.0092 9.73851 17.0791 9.48666L17.0791 9.48663C17.1632 9.184 16.986 8.87049 16.6833 8.78643L13.6656 7.94819L9.56875 6.81021V1.57819C9.56875 1.43938 9.54369 1.27339 9.45912 1.13881C9.37035 0.99753 9.22119 0.9 9 0.9C8.8774 0.9 8.7753 0.930984 8.69298 0.987249C8.6113 1.04308 8.55547 1.1194 8.51747 1.20028C8.44299 1.35882 8.43125 1.54746 8.43125 1.67977V6.49424L4.62831 5.43788L1.62111 4.60255C1.3185 4.51844 1.00495 4.69568 0.920857 4.99832L0.920851 4.99834C0.836834 5.30098 1.01397 5.61448 1.31666 5.69855C1.31666 5.69855 1.31666 5.69855 1.31667 5.69855L3.60931 6.3354L0.981255 10.7159C0.981249 10.7159 0.981243 10.7159 0.981237 10.7159C0.928205 10.8043 0.900177 10.9054 0.900238 11.0085C0.900238 11.0085 0.900238 11.0085 0.900238 11.0085L1.00024 11.0085C1.00018 11.9383 1.36227 12.8125 2.0198 13.47C2.67736 14.1276 3.55154 14.4897 4.48139 14.4897C6.40088 14.4897 7.96253 12.9281 7.96253 11.0085C7.96253 10.9236 7.93941 10.8402 7.89572 10.7674L5.56232 6.87788L5.70225 6.91675ZM15.895 14.0876C15.638 15.1616 14.67 15.9625 13.5187 15.9625C12.3673 15.9625 11.3994 15.1616 11.1423 14.0876H15.895ZM11.5107 12.9501L13.5187 9.60316L15.5266 12.9501H11.5107ZM6.48936 10.4397H2.47335L4.48138 7.09284L6.48936 10.4397ZM4.48132 13.4522C3.32994 13.4522 2.36205 12.6513 2.10495 11.5773H6.85773C6.60063 12.6513 5.63268 13.4522 4.48132 13.4522Z" fill="#003466" stroke="#003466" stroke-width="0.2"/>
</svg>
